<svg id="svg" version="1.1" xmlns="http://www.w3.org/2000/svg" xmlns:xlink="http://www.w3.org/1999/xlink" width="400" height="400" viewBox="0, 0, 400,400"><g id="svgg"><path id="path0" d="M185.690 47.983 C 182.815 49.985,179.000 53.419,179.000 54.006 C 179.000 54.675,180.327 54.299,181.724 53.234 C 184.032 51.476,186.986 49.553,189.500 48.175 C 193.488 45.989,193.482 45.998,190.824 46.014 C 188.539 46.027,188.453 46.060,185.690 47.983 M209.417 46.360 C 209.738 46.547,210.938 46.863,212.084 47.063 C 213.938 47.386,219.631 49.351,227.500 52.382 C 234.481 55.072,242.020 59.125,246.490 62.592 C 250.946 66.049,254.074 67.060,251.750 64.293 C 246.833 58.439,233.506 49.921,224.731 47.024 C 221.505 45.959,207.701 45.361,209.417 46.360 M197.816 58.189 C 194.827 59.206,191.909 64.952,192.681 68.299 C 194.200 74.881,199.194 77.084,201.460 72.171 C 201.757 71.527,202.262 70.438,202.583 69.750 C 204.825 64.945,201.520 56.928,197.816 58.189 M294.156 65.301 C 289.248 65.913,290.335 66.500,297.000 66.836 C 302.867 67.133,305.797 67.885,320.333 72.831 C 334.368 77.606,340.498 81.339,342.326 86.223 C 343.296 88.816,343.308 95.185,342.346 96.409 C 340.845 98.316,335.549 99.497,331.902 98.738 C 330.947 98.539,329.360 98.215,328.374 98.018 C 323.588 97.059,314.463 92.721,307.667 88.174 C 298.823 82.256,297.491 82.190,303.833 87.982 C 317.623 100.578,331.030 105.963,340.481 102.701 C 348.152 100.054,349.606 91.107,343.469 84.324 C 342.386 83.128,340.844 81.359,340.041 80.395 C 336.166 75.735,328.258 71.982,312.833 67.482 C 304.609 65.083,300.118 64.559,294.156 65.301 M179.934 67.570 C 179.729 68.375,180.726 73.221,181.770 76.500 C 182.236 77.967,182.952 80.592,183.359 82.333 C 185.797 92.761,188.639 98.883,195.503 108.496 C 198.867 113.207,199.439 113.847,199.985 113.509 C 201.277 112.711,199.278 107.429,195.000 100.333 C 191.254 94.122,188.711 88.366,185.278 78.333 C 182.142 69.167,180.412 65.683,179.934 67.570 M218.455 67.412 C 216.367 68.358,216.571 69.385,219.829 74.327 C 225.035 82.221,232.333 85.423,232.333 79.811 C 232.333 77.272,228.153 72.112,224.649 70.324 C 223.841 69.912,222.652 69.154,222.007 68.639 C 220.440 67.389,219.342 67.010,218.455 67.412 M117.321 74.687 C 115.262 76.012,105.472 78.354,99.871 78.862 C 98.360 78.999,97.337 79.242,97.342 79.463 C 97.358 80.143,98.603 85.381,98.794 85.572 C 98.898 85.676,101.687 85.085,104.992 84.259 C 108.296 83.433,111.000 82.830,111.000 82.919 C 111.000 83.007,110.467 83.957,109.815 85.030 C 95.472 108.641,100.896 129.657,121.333 129.657 C 135.604 129.657,141.978 121.488,142.003 103.167 L 142.010 98.167 144.037 101.971 C 146.305 106.229,148.782 110.276,150.760 112.957 L 152.081 114.747 154.575 112.253 L 157.070 109.758 154.785 107.019 C 146.838 97.494,142.544 88.336,141.791 79.310 L 141.565 76.598 140.366 76.785 C 139.706 76.888,138.154 77.075,136.917 77.199 C 135.679 77.324,134.667 77.465,134.667 77.513 C 134.667 77.561,134.962 79.330,135.324 81.444 C 137.486 94.093,136.737 110.067,133.682 116.467 C 131.044 121.994,124.543 124.596,117.363 123.001 C 105.692 120.409,104.668 104.729,115.024 87.167 C 118.029 82.070,118.828 81.038,120.216 80.458 C 121.516 79.915,121.496 79.839,119.088 76.270 C 118.100 74.805,117.698 74.444,117.321 74.687 M270.333 74.852 C 270.333 74.955,272.634 77.317,275.446 80.102 C 280.666 85.273,280.620 85.216,293.905 103.167 C 298.672 109.608,300.568 112.694,303.530 118.833 C 310.126 132.503,318.395 159.253,320.892 175.000 C 321.789 180.653,321.794 209.042,320.900 215.500 C 318.797 230.692,317.920 234.134,311.200 253.593 C 310.359 256.027,308.683 261.202,307.475 265.093 C 301.278 285.053,295.790 293.701,277.519 312.292 C 267.232 322.759,265.089 323.269,269.212 314.268 C 271.663 308.916,272.339 306.896,272.306 305.031 L 272.278 303.500 271.480 306.000 C 270.325 309.619,266.280 317.446,262.782 322.833 C 261.115 325.400,259.121 328.595,258.351 329.933 C 252.605 339.921,228.088 359.407,208.500 369.555 L 203.167 372.317 205.589 372.325 C 210.097 372.340,222.270 365.431,236.330 354.876 C 248.617 345.653,252.766 341.718,258.345 333.996 C 263.351 327.065,265.095 325.166,269.031 322.360 C 287.501 309.190,301.399 291.611,305.834 275.812 C 306.712 272.683,307.538 270.572,310.323 264.333 C 326.050 229.098,330.458 194.494,323.183 163.360 C 318.168 141.895,309.331 119.042,301.590 107.518 C 292.476 93.949,270.333 70.809,270.333 74.852 M253.703 76.694 C 250.189 78.100,248.296 80.591,247.584 84.746 C 247.054 87.842,247.743 89.066,252.919 94.220 C 257.658 98.938,257.522 98.513,255.673 102.848 C 254.399 105.838,254.419 106.874,255.841 111.214 C 257.732 116.985,259.244 118.847,265.242 122.790 C 271.767 127.079,276.197 132.944,277.023 138.388 C 277.247 139.870,277.925 142.015,278.744 143.833 C 279.486 145.483,280.905 148.858,281.896 151.333 C 284.454 157.725,286.412 159.639,288.378 157.673 C 289.505 156.546,289.658 154.667,288.816 152.292 C 288.532 151.490,287.702 148.658,286.972 146.000 C 286.203 143.201,284.948 139.688,283.989 137.654 C 283.078 135.721,282.333 133.666,282.333 133.087 C 282.333 131.388,281.668 128.763,280.678 126.555 C 279.831 124.667,279.348 122.614,278.822 118.667 C 278.526 116.447,277.750 113.866,276.674 111.515 C 274.621 107.034,274.607 105.344,276.586 101.382 C 279.434 95.682,278.181 93.316,266.724 82.760 C 260.267 76.811,257.100 75.336,253.703 76.694 M332.391 88.771 C 330.206 91.098,333.592 94.438,335.848 92.182 C 336.298 91.732,336.667 90.975,336.667 90.500 C 336.667 88.405,333.818 87.253,332.391 88.771 M215.514 90.910 C 211.943 91.817,211.748 95.490,214.916 102.191 C 216.036 104.561,217.059 106.929,217.188 107.453 C 217.716 109.590,225.141 116.320,227.744 117.021 C 228.511 117.227,229.782 117.840,230.570 118.382 C 237.860 123.397,242.324 119.348,236.800 112.730 C 235.307 110.942,234.400 109.465,233.793 107.835 C 232.136 103.384,231.344 101.953,229.398 99.898 C 228.323 98.763,226.890 96.909,226.215 95.779 C 223.639 91.470,219.938 89.786,215.514 90.910 M253.980 121.370 C 253.665 121.959,253.801 122.450,254.809 124.374 C 255.941 126.537,256.008 126.836,255.924 129.364 C 255.825 132.304,255.610 131.874,258.257 134.028 C 259.528 135.062,256.657 137.333,254.079 137.333 C 248.208 137.333,243.858 143.362,246.610 147.685 C 247.675 149.358,251.211 152.747,252.689 153.511 C 253.227 153.790,253.667 154.144,253.667 154.298 C 253.667 154.877,257.712 156.333,259.319 156.333 C 260.741 156.333,261.116 156.167,262.547 154.902 C 263.438 154.115,264.944 152.981,265.895 152.382 C 268.415 150.792,268.453 150.201,266.321 145.584 C 265.369 143.521,264.225 141.347,263.779 140.752 C 263.334 140.158,262.759 138.972,262.502 138.117 C 262.233 137.225,261.512 136.028,260.809 135.308 C 259.731 134.205,259.611 133.919,259.810 132.943 C 260.516 129.497,260.539 129.593,258.499 127.390 C 256.978 125.747,256.569 125.063,256.423 123.922 C 256.066 121.126,254.812 119.816,253.980 121.370 M217.667 122.007 C 217.667 122.905,219.602 126.129,223.455 131.651 C 232.779 145.012,235.335 149.890,242.501 168.000 C 249.695 186.179,254.299 200.435,257.197 213.500 C 258.598 219.813,259.447 261.714,258.376 271.667 C 258.169 273.592,257.772 278.617,257.493 282.833 C 256.678 295.157,256.619 295.298,247.959 305.359 C 239.875 314.752,232.573 321.111,217.167 332.178 C 214.417 334.153,211.492 336.320,210.667 336.994 C 209.842 337.667,207.592 339.286,205.667 340.591 C 203.742 341.895,200.892 344.047,199.333 345.372 C 195.014 349.044,192.755 350.623,189.813 352.025 C 186.597 353.557,185.333 354.495,185.333 355.349 C 185.333 356.257,186.938 357.008,188.000 356.597 C 188.458 356.420,191.454 355.610,194.656 354.798 C 202.891 352.709,212.328 349.511,214.082 348.214 L 215.500 347.167 214.500 347.052 C 213.579 346.946,208.250 347.963,203.000 349.247 C 195.175 351.160,195.251 349.720,203.227 344.954 C 211.789 339.839,230.416 325.680,237.001 319.282 C 239.011 317.329,248.092 307.225,250.391 304.384 C 252.875 301.313,255.333 300.625,255.333 303.000 C 255.333 306.932,258.469 301.314,260.820 293.171 C 261.855 289.584,263.905 280.128,264.353 276.869 C 265.176 270.893,264.833 230.901,263.900 224.000 C 262.097 210.657,262.431 212.273,259.183 201.167 C 256.422 191.726,254.524 186.507,247.039 167.763 C 241.462 153.800,236.052 144.231,228.445 134.879 C 226.825 132.888,224.130 129.374,222.455 127.070 C 219.585 123.121,217.667 121.093,217.667 122.007 M208.081 133.181 C 203.673 136.268,199.704 146.438,196.117 163.833 L 194.536 171.500 194.562 180.029 C 194.596 190.963,195.247 194.809,197.191 195.555 C 198.387 196.015,198.495 195.205,198.704 184.234 C 198.873 175.376,199.036 172.772,199.633 169.333 C 200.676 163.338,203.293 150.427,203.824 148.667 C 204.852 145.254,206.726 140.742,208.102 138.366 C 210.847 133.625,210.837 131.250,208.081 133.181 M132.147 143.486 C 130.345 144.243,116.276 145.666,110.583 145.666 C 108.612 145.667,107.002 145.704,107.005 145.750 C 107.008 145.796,107.432 147.183,107.947 148.833 L 108.884 151.833 111.025 151.764 C 112.203 151.726,116.311 151.245,120.153 150.695 C 123.996 150.145,127.182 149.737,127.233 149.788 C 127.999 150.555,115.959 165.503,106.702 175.279 L 101.230 181.057 103.556 183.384 L 105.883 185.710 106.788 184.342 C 112.492 175.723,122.620 170.715,133.617 171.075 C 142.090 171.354,145.521 174.126,145.930 181.028 C 146.478 190.285,140.835 193.752,123.667 194.707 C 120.092 194.906,117.129 195.103,117.083 195.146 C 117.037 195.188,117.562 196.446,118.250 197.940 L 119.500 200.658 121.167 200.659 C 140.725 200.670,151.163 194.671,151.604 183.166 C 152.135 169.288,141.502 162.958,124.701 167.149 C 122.795 167.624,121.203 167.973,121.164 167.923 C 120.881 167.568,135.785 149.157,136.650 148.793 C 138.295 148.101,137.958 147.230,135.086 144.741 C 133.227 143.130,133.110 143.081,132.147 143.486 M299.804 144.964 C 296.166 147.182,296.410 149.747,300.734 154.771 C 303.249 157.694,303.865 159.099,304.151 162.563 C 304.578 167.745,303.919 170.316,300.987 174.913 C 300.569 175.568,300.579 175.793,301.067 176.746 C 301.428 177.451,301.666 178.907,301.746 180.890 C 301.865 183.826,301.918 184.010,303.101 185.528 C 304.640 187.503,304.636 187.862,303.051 189.873 C 302.346 190.768,301.523 192.233,301.222 193.130 C 299.923 197.005,298.625 198.368,294.690 199.990 C 289.528 202.119,288.196 204.606,288.541 211.474 L 288.762 215.886 287.412 218.193 C 285.755 221.026,284.869 221.880,282.233 223.185 C 280.283 224.151,280.132 224.314,279.298 226.352 C 274.927 237.041,275.059 242.542,279.798 247.120 C 281.505 248.770,281.988 249.463,282.162 250.513 C 282.282 251.239,282.600 252.883,282.870 254.167 C 283.139 255.450,283.510 257.625,283.694 259.000 C 283.878 260.375,284.181 262.400,284.366 263.500 C 285.181 268.333,285.202 268.140,283.547 270.988 C 281.986 273.675,281.832 274.400,282.199 277.333 C 282.357 278.596,282.198 279.228,281.194 281.324 C 279.293 285.289,279.665 287.277,282.102 286.181 C 284.346 285.172,285.667 283.429,285.667 281.479 C 285.667 280.007,286.163 279.205,287.297 278.845 C 289.126 278.264,290.412 274.631,289.533 272.527 C 288.857 270.910,288.853 269.537,289.522 268.982 C 290.490 268.178,291.042 266.629,291.156 264.392 C 291.219 263.168,291.458 261.267,291.688 260.167 C 293.069 253.547,292.134 247.562,289.132 243.820 C 284.413 237.938,285.956 233.272,292.426 233.859 C 295.992 234.182,301.667 231.614,301.667 229.678 C 301.667 229.535,303.108 227.037,304.869 224.126 C 308.959 217.365,308.731 218.034,309.003 212.000 C 309.242 206.697,309.830 204.287,311.307 202.548 C 311.718 202.065,311.833 201.114,311.833 198.214 C 311.833 193.430,311.409 192.506,308.079 190.042 C 305.129 187.859,305.011 187.480,306.178 183.932 C 307.279 180.580,307.674 180.090,309.486 179.818 C 316.222 178.808,317.436 171.105,312.584 160.159 C 310.442 155.327,307.060 148.789,306.133 147.687 C 305.693 147.165,305.333 146.579,305.333 146.386 C 305.333 144.818,301.612 143.861,299.804 144.964 M210.624 150.792 C 209.532 151.336,209.204 152.903,209.184 157.667 C 209.173 160.359,209.019 162.091,208.750 162.561 C 208.060 163.767,208.254 164.972,209.308 166.026 C 211.612 168.330,214.762 165.757,213.543 162.566 C 212.859 160.774,212.858 159.701,213.542 157.993 C 214.951 154.471,212.984 149.616,210.624 150.792 M221.560 155.667 C 221.894 157.499,221.831 161.242,221.381 166.333 C 221.195 168.442,220.893 172.417,220.712 175.167 C 219.607 191.871,212.941 200.322,203.732 196.692 C 199.692 195.100,200.142 198.114,204.254 200.198 C 212.871 204.564,221.909 195.384,223.812 180.333 C 225.459 167.298,224.882 159.366,221.979 155.167 L 221.287 154.167 221.560 155.667 M265.307 165.531 C 265.034 165.861,264.854 167.034,264.833 168.621 C 264.815 170.029,264.712 171.327,264.605 171.507 C 264.497 171.686,264.312 173.933,264.193 176.500 C 263.911 182.619,264.529 185.334,267.018 188.913 C 268.304 190.762,268.859 191.970,269.389 194.080 C 270.774 199.594,273.092 201.616,275.604 199.501 C 277.242 198.123,277.710 196.470,277.323 193.427 C 277.142 192.001,277.008 188.883,277.026 186.500 C 277.063 181.508,276.531 179.371,274.328 175.667 C 273.620 174.475,272.714 172.622,272.317 171.549 C 270.754 167.336,266.699 163.854,265.307 165.531 M208.532 169.055 C 207.322 170.783,208.118 172.459,210.059 172.273 C 212.416 172.046,212.463 168.627,210.113 168.398 C 209.328 168.322,208.930 168.487,208.532 169.055 M124.667 217.799 L 124.667 223.333 122.750 223.365 C 121.696 223.383,115.808 223.570,109.667 223.782 L 98.500 224.167 98.402 226.967 L 98.305 229.767 103.236 229.552 C 105.948 229.434,111.879 229.238,116.417 229.117 L 124.667 228.897 124.667 233.729 L 124.667 238.562 119.113 238.781 C 116.059 238.901,111.728 239.000,109.488 239.000 C 107.249 239.000,104.948 239.094,104.375 239.208 L 103.333 239.417 103.333 242.066 L 103.333 244.714 114.010 244.474 L 124.687 244.233 124.594 248.485 L 124.500 252.736 119.617 252.686 C 109.358 252.582,104.275 255.624,103.748 262.181 C 103.190 269.140,107.822 273.179,116.333 273.153 C 125.063 273.127,129.312 269.554,129.912 261.734 L 130.099 259.302 131.133 259.520 C 134.280 260.184,143.799 264.392,147.646 266.820 C 148.383 267.286,149.106 267.667,149.252 267.667 C 149.521 267.667,152.452 261.997,152.267 261.835 C 150.725 260.482,139.353 256.264,132.858 254.635 L 130.000 253.918 130.000 249.006 L 130.000 244.093 131.750 243.883 C 132.712 243.767,135.150 243.670,137.167 243.668 C 139.183 243.666,142.527 243.566,144.596 243.447 L 148.359 243.230 148.263 240.568 L 148.167 237.906 144.833 237.953 C 143.000 237.979,138.912 238.097,135.750 238.215 L 130.000 238.429 130.000 233.427 L 130.000 228.425 133.083 228.221 C 134.779 228.108,139.467 227.931,143.500 227.827 C 147.533 227.723,151.321 227.562,151.917 227.470 L 153.000 227.303 153.000 224.601 L 153.000 221.900 147.583 222.114 C 144.604 222.231,139.429 222.427,136.083 222.548 L 130.000 222.768 130.000 218.822 C 130.000 215.314,130.075 214.796,130.678 214.155 C 131.738 213.026,130.826 212.525,127.449 212.382 L 124.667 212.265 124.667 217.799 M122.831 257.885 L 124.421 258.103 124.231 260.374 C 123.760 265.987,120.834 268.583,115.336 268.265 C 111.347 268.034,109.000 266.183,109.000 263.267 C 109.000 258.829,114.397 256.729,122.831 257.885 M133.840 287.225 C 132.315 289.223,132.021 288.837,138.005 292.674 L 143.167 295.983 143.934 295.075 C 144.355 294.575,144.985 293.779,145.333 293.306 L 145.966 292.445 140.658 289.056 C 134.422 285.075,135.302 285.311,133.840 287.225 M108.760 309.385 C 108.858 325.772,108.997 331.579,109.321 332.833 C 113.046 347.219,135.176 347.628,149.868 333.582 L 152.977 330.610 150.905 328.027 L 148.833 325.445 145.444 328.639 C 133.956 339.464,118.923 340.831,115.795 331.333 C 114.886 328.575,114.649 290.845,115.532 289.497 C 116.408 288.161,115.786 287.850,111.966 287.718 L 108.631 287.603 108.760 309.385 M128.205 293.374 C 127.110 294.793,126.981 295.121,127.372 295.491 C 127.990 296.079,137.310 302.000,137.617 302.000 C 137.891 302.000,140.448 298.658,140.277 298.522 C 139.364 297.793,129.722 291.640,129.557 291.681 C 129.526 291.689,128.917 292.451,128.205 293.374 M244.350 317.248 C 241.514 318.645,237.211 324.780,236.542 328.379 C 236.419 329.046,235.946 330.505,235.492 331.622 C 233.390 336.795,236.232 339.655,240.333 336.495 C 241.158 335.859,242.814 334.670,244.013 333.852 C 250.635 329.336,253.769 323.245,251.482 319.333 C 250.159 317.069,246.742 316.070,244.350 317.248 M219.372 350.183 C 214.962 352.097,195.228 370.020,197.555 369.997 C 197.945 369.993,205.707 363.676,209.051 360.641 C 210.581 359.253,213.108 357.169,214.667 356.010 C 220.533 351.650,222.984 348.615,219.372 350.183 " stroke="none" fill="#050404" fill-rule="evenodd"></path><path id="path1" d="M186.833 0.216 C 146.314 3.412,110.824 16.657,79.399 40.308 C 18.095 86.448,-11.466 164.542,3.873 239.833 C 19.925 318.625,81.375 380.075,160.167 396.127 C 185.769 401.343,214.231 401.343,239.833 396.127 C 322.285 379.330,385.854 312.344,397.964 229.500 C 401.251 207.012,400.590 182.074,396.127 160.167 C 378.578 74.024,308.811 10.899,220.000 0.806 C 215.389 0.282,191.405 -0.145,186.833 0.216 M192.491 46.448 C 192.129 46.694,190.783 47.472,189.500 48.175 C 186.986 49.553,184.032 51.476,181.724 53.234 C 178.735 55.513,178.167 54.482,180.940 51.809 C 185.011 47.885,188.177 46.029,190.824 46.014 C 192.872 46.002,193.070 46.053,192.491 46.448 M224.731 47.024 C 233.506 49.921,246.833 58.439,251.750 64.293 C 254.074 67.060,250.946 66.049,246.490 62.592 C 242.020 59.125,234.481 55.072,227.500 52.382 C 219.631 49.351,213.938 47.386,212.084 47.063 C 207.743 46.307,208.598 46.021,215.231 46.010 C 221.491 46.000,221.696 46.022,224.731 47.024 M209.515 57.017 C 209.912 57.456,210.106 58.111,210.057 58.846 C 209.875 61.547,211.118 62.121,214.000 60.667 C 216.834 59.236,218.588 59.647,219.147 61.872 L 219.368 62.755 222.434 62.539 L 225.500 62.323 226.963 63.494 C 228.377 64.627,229.410 65.027,232.108 65.488 C 233.003 65.641,233.946 66.224,235.277 67.448 C 236.439 68.517,237.945 69.496,239.169 69.981 C 241.984 71.094,243.104 72.023,244.980 74.804 C 247.823 79.017,248.978 79.632,251.203 78.117 C 256.089 74.791,259.029 75.670,266.724 82.760 C 278.244 93.374,279.467 95.711,276.510 101.460 L 275.208 103.990 277.282 105.866 C 278.422 106.898,279.592 108.213,279.881 108.788 C 280.170 109.363,281.006 110.456,281.740 111.217 C 282.731 112.244,283.151 113.016,283.372 114.217 C 283.767 116.353,284.434 117.204,287.119 119.000 C 288.352 119.825,289.744 120.992,290.212 121.593 C 291.206 122.869,292.824 123.750,295.200 124.309 C 297.537 124.859,299.025 126.196,300.310 128.899 C 300.902 130.146,301.983 131.879,302.713 132.750 C 304.635 135.044,304.996 135.913,304.998 138.257 C 305.000 140.232,305.074 140.429,306.333 141.795 C 308.072 143.681,307.761 146.000,305.770 146.000 C 305.107 146.000,305.245 146.632,306.141 147.697 C 307.052 148.780,311.156 156.739,312.449 159.931 C 312.916 161.085,313.675 162.477,314.136 163.024 C 315.116 164.189,315.341 165.202,315.433 168.862 C 315.496 171.383,315.570 171.636,316.583 172.790 C 317.364 173.679,317.667 174.349,317.667 175.189 C 317.667 175.830,317.868 176.837,318.114 177.427 C 318.361 178.017,318.664 179.100,318.790 179.833 C 319.166 182.040,320.035 185.459,320.387 186.120 C 320.942 187.161,318.928 191.100,317.629 191.512 C 316.657 191.820,316.880 192.538,318.201 193.355 C 320.214 194.599,320.664 195.698,320.665 199.381 C 320.666 202.026,320.762 202.632,321.203 202.801 C 322.075 203.136,321.685 179.821,320.720 173.959 C 318.182 158.537,309.949 132.136,303.530 118.833 C 300.568 112.694,298.672 109.608,293.905 103.167 C 280.606 85.196,280.671 85.278,275.408 80.065 C 272.576 77.260,270.361 74.862,270.486 74.736 C 272.370 72.853,292.691 94.270,301.590 107.518 C 309.331 119.042,318.168 141.895,323.183 163.360 C 324.949 170.919,325.347 173.985,326.355 187.833 C 326.765 193.455,326.338 205.951,325.488 213.216 C 323.889 226.880,317.644 247.930,310.323 264.333 C 307.538 270.572,306.712 272.683,305.834 275.812 C 301.399 291.611,287.501 309.190,269.031 322.360 C 265.095 325.166,263.351 327.065,258.345 333.996 C 252.766 341.718,248.617 345.653,236.330 354.876 C 222.270 365.431,210.097 372.340,205.589 372.325 L 203.167 372.317 208.500 369.555 C 228.088 359.407,252.605 339.921,258.351 329.933 C 259.121 328.595,261.115 325.400,262.782 322.833 C 266.280 317.446,270.325 309.619,271.480 306.000 L 272.278 303.500 272.306 305.031 C 272.339 306.896,271.663 308.916,269.212 314.268 C 265.089 323.269,267.232 322.759,277.519 312.292 C 295.790 293.701,301.278 285.053,307.475 265.093 C 308.683 261.202,310.359 256.027,311.200 253.593 C 315.232 241.919,316.760 237.246,317.499 234.333 C 318.910 228.768,321.333 213.870,321.333 210.755 L 321.333 209.650 320.316 210.176 C 319.032 210.840,318.842 211.345,319.327 212.814 C 319.800 214.247,319.563 215.106,318.504 215.800 C 316.781 216.929,315.670 215.189,316.541 212.724 L 317.091 211.167 315.462 208.138 C 311.299 200.396,309.485 201.481,309.006 212.000 C 308.731 218.034,308.959 217.365,304.869 224.126 C 301.570 229.577,301.426 229.927,302.014 231.026 C 302.277 231.518,302.197 232.045,301.681 233.213 C 300.782 235.243,300.781 235.237,302.400 237.647 C 304.279 240.446,304.254 241.313,302.204 244.313 L 300.608 246.649 300.837 249.093 C 301.153 252.465,298.523 255.505,296.313 254.323 C 294.698 253.458,292.003 255.400,291.994 257.434 C 291.991 258.203,291.766 259.883,291.494 261.167 C 290.882 264.056,290.874 263.889,291.633 264.088 C 293.365 264.541,293.538 265.933,292.051 267.448 C 290.464 269.065,290.307 270.065,291.233 272.671 C 291.791 274.243,291.787 274.296,290.932 276.549 C 290.455 277.805,289.973 279.348,289.862 279.978 C 289.628 281.294,288.812 282.333,288.012 282.333 C 286.981 282.333,286.339 283.154,286.123 284.750 C 285.961 285.948,286.017 286.333,286.350 286.333 C 287.629 286.333,288.764 288.436,287.933 289.267 C 286.683 290.517,284.909 289.153,285.228 287.186 L 285.437 285.902 283.890 286.076 C 281.405 286.356,280.667 287.030,280.667 289.019 C 280.667 292.876,277.322 294.420,274.545 291.846 C 272.939 290.358,273.324 289.332,276.250 287.309 L 277.667 286.329 277.667 283.680 C 277.667 280.493,277.938 279.834,279.853 278.380 C 282.317 276.509,282.864 271.526,280.891 268.938 C 279.318 266.877,280.760 265.703,283.634 266.705 C 284.995 267.180,285.227 266.925,284.718 265.516 C 284.492 264.892,284.216 263.583,284.104 262.607 C 283.954 261.304,283.637 260.530,282.909 259.692 C 281.953 258.591,281.927 258.472,282.166 256.358 C 282.771 250.999,282.257 249.169,279.468 246.761 C 275.832 243.622,275.130 237.868,277.575 231.257 L 278.405 229.015 277.503 227.943 C 275.413 225.459,275.945 223.661,279.350 221.697 C 282.079 220.124,282.667 219.507,282.667 218.212 C 282.667 216.586,284.016 215.384,285.071 216.070 C 288.205 218.110,288.866 217.175,288.533 211.174 C 288.263 206.309,288.845 204.123,290.892 202.327 C 291.939 201.407,292.038 201.192,291.703 200.557 C 291.481 200.137,291.359 198.691,291.411 197.112 C 291.584 191.829,289.108 190.551,281.500 191.997 C 280.400 192.206,278.992 192.376,278.371 192.375 L 277.243 192.374 277.440 194.271 C 277.892 198.623,274.675 201.700,272.014 199.460 C 270.670 198.329,270.229 197.427,269.389 194.080 C 268.859 191.970,268.304 190.762,267.018 188.913 C 264.831 185.768,263.978 182.622,264.073 178.043 C 264.149 174.386,264.017 174.030,261.611 171.385 C 259.579 169.150,258.614 167.504,257.478 164.333 C 256.986 162.958,256.005 160.681,255.299 159.272 C 254.593 157.864,253.916 156.095,253.796 155.341 C 253.628 154.294,253.357 153.857,252.644 153.488 C 244.800 149.432,243.611 141.345,250.417 138.336 C 254.142 136.688,251.737 133.508,245.084 131.287 C 243.501 130.759,241.886 130.117,241.495 129.861 C 240.793 129.401,235.533 122.242,235.135 121.204 C 235.021 120.908,234.275 120.377,233.475 120.023 C 232.676 119.670,231.373 118.934,230.580 118.388 C 229.787 117.843,228.511 117.227,227.744 117.021 C 225.141 116.320,217.716 109.590,217.188 107.453 C 217.059 106.929,216.036 104.561,214.916 102.191 C 211.123 94.169,211.932 91.044,217.881 90.730 C 222.714 90.475,222.799 88.049,218.152 82.955 C 215.634 80.193,214.530 77.164,214.513 72.966 C 214.500 69.790,214.491 69.756,213.333 68.445 C 212.692 67.718,211.850 66.683,211.464 66.145 C 210.304 64.530,206.204 65.282,203.583 67.590 C 202.166 68.838,202.926 72.237,205.156 74.621 C 207.381 77.000,207.667 77.942,207.667 82.915 C 207.667 90.466,205.679 91.290,201.026 85.667 C 197.235 81.087,196.833 80.280,196.833 77.257 C 196.833 74.683,196.833 74.681,195.574 73.642 C 194.108 72.432,193.284 70.909,192.681 68.299 C 191.571 63.489,197.272 55.923,200.034 58.541 L 200.901 59.363 203.247 58.713 C 205.865 57.988,206.688 57.611,207.318 56.852 C 207.911 56.138,208.779 56.203,209.515 57.017 M312.833 67.482 C 328.258 71.982,336.166 75.735,340.041 80.395 C 340.844 81.359,342.386 83.128,343.469 84.324 C 349.606 91.107,348.152 100.054,340.481 102.701 C 331.030 105.963,317.623 100.578,303.833 87.982 C 297.491 82.190,298.823 82.256,307.667 88.174 C 314.463 92.721,323.588 97.059,328.374 98.018 C 329.360 98.215,330.947 98.539,331.902 98.738 C 335.549 99.497,340.845 98.316,342.346 96.409 C 343.308 95.185,343.296 88.816,342.326 86.223 C 340.498 81.339,334.368 77.606,320.333 72.831 C 305.797 67.885,302.867 67.133,297.000 66.836 C 290.335 66.500,289.248 65.913,294.156 65.301 C 300.118 64.559,304.609 65.083,312.833 67.482 M181.887 69.344 C 182.466 70.530,183.992 74.575,185.278 78.333 C 188.711 88.366,191.254 94.122,195.000 100.333 C 199.278 107.429,201.277 112.711,199.985 113.509 C 199.439 113.847,198.867 113.207,195.503 108.496 C 188.639 98.883,185.797 92.761,183.359 82.333 C 182.952 80.592,182.236 77.967,181.770 76.500 C 179.320 68.805,179.395 64.243,181.887 69.344 M121.333 79.809 C 121.333 79.897,120.787 80.228,120.120 80.545 C 119.216 80.974,118.372 81.936,116.814 84.313 C 103.467 104.684,105.259 122.545,120.720 123.254 C 133.077 123.820,137.366 115.444,136.329 92.775 C 136.067 87.030,135.542 82.085,134.813 78.474 L 134.606 77.448 137.784 77.057 C 139.531 76.842,141.120 76.667,141.314 76.667 C 141.508 76.667,141.667 77.229,141.668 77.917 C 141.675 86.106,146.526 97.012,154.382 106.498 L 157.077 109.751 154.572 112.256 L 152.068 114.760 150.535 112.679 C 148.600 110.050,146.030 105.802,143.811 101.563 L 142.086 98.270 141.899 104.885 C 141.400 122.425,135.267 129.777,121.178 129.722 C 100.811 129.643,95.435 108.125,109.955 84.798 C 111.262 82.697,111.590 82.725,104.840 84.351 C 101.438 85.170,98.852 85.639,98.696 85.466 C 98.416 85.155,97.206 79.327,97.393 79.193 C 97.452 79.151,99.456 78.870,101.847 78.567 C 106.650 77.959,112.752 76.518,115.833 75.263 L 117.833 74.449 119.583 77.049 C 120.546 78.479,121.333 79.721,121.333 79.809 M318.623 77.036 C 319.851 77.800,320.892 78.139,322.582 78.324 C 326.149 78.716,327.252 79.830,327.596 83.392 C 328.305 90.727,312.395 90.307,308.611 82.892 C 308.241 82.165,307.497 81.201,306.959 80.748 C 305.815 79.785,306.133 79.000,307.668 79.000 C 308.562 79.000,314.665 76.980,315.667 76.353 C 316.469 75.850,316.859 75.940,318.623 77.036 M246.442 81.841 C 245.753 82.385,245.185 83.284,244.814 84.421 C 243.935 87.110,243.419 87.936,242.074 88.804 C 239.015 90.780,237.544 90.314,234.460 86.390 C 231.680 82.852,231.236 82.586,227.000 81.913 C 226.313 81.804,226.377 83.866,227.149 86.662 C 227.815 89.077,227.710 91.466,226.822 94.057 C 226.160 95.989,226.536 96.880,229.186 99.659 C 230.154 100.674,231.296 102.117,231.723 102.866 C 233.977 106.819,236.592 107.707,241.429 106.162 C 245.982 104.708,248.994 105.985,248.999 109.372 C 249.001 110.643,250.143 111.894,252.294 112.980 C 254.349 114.017,254.782 114.636,255.216 117.150 C 255.480 118.686,255.661 118.923,257.833 120.583 C 264.486 125.667,266.524 130.262,264.656 135.961 C 263.891 138.295,263.882 138.442,264.400 139.942 C 264.696 140.799,265.045 142.025,265.176 142.667 C 265.306 143.308,265.917 144.812,266.533 146.009 C 268.094 149.040,268.268 150.140,267.379 151.342 C 266.210 152.924,266.534 154.617,269.203 160.865 C 270.037 162.817,270.992 165.783,271.326 167.457 C 272.673 174.211,275.017 177.891,278.461 178.659 C 279.356 178.859,280.963 179.317,282.033 179.678 C 287.176 181.410,289.328 179.367,287.193 174.781 C 286.753 173.835,285.988 171.735,285.494 170.114 C 284.848 167.997,284.100 166.462,282.839 164.667 C 278.561 158.574,277.983 155.398,280.816 153.542 C 282.323 152.554,281.946 150.944,278.428 143.353 C 277.965 142.356,277.367 140.256,277.098 138.687 C 276.082 132.754,272.037 127.398,265.000 122.668 C 258.993 118.630,257.614 116.886,255.706 110.913 C 254.388 106.787,254.403 105.777,255.827 102.318 C 257.422 98.446,257.246 97.861,253.626 94.999 C 251.950 93.675,249.938 91.396,248.223 88.883 C 247.176 87.348,247.142 85.200,248.120 82.361 C 248.697 80.686,248.130 80.510,246.442 81.841 M335.848 88.818 C 337.906 90.875,335.625 93.858,333.024 92.512 C 331.476 91.712,331.194 90.046,332.391 88.771 C 333.352 87.749,334.799 87.768,335.848 88.818 M222.455 127.070 C 224.130 129.374,226.825 132.888,228.445 134.879 C 236.052 144.231,241.462 153.800,247.039 167.763 C 254.524 186.507,256.422 191.726,259.183 201.167 C 261.952 210.636,262.244 211.829,262.814 216.000 C 263.102 218.108,263.591 221.708,263.900 224.000 C 264.833 230.901,265.176 270.893,264.353 276.869 C 263.905 280.128,261.855 289.584,260.820 293.171 C 258.469 301.314,255.333 306.932,255.333 303.000 C 255.333 300.625,252.875 301.313,250.391 304.384 C 248.092 307.225,239.011 317.329,237.001 319.282 C 230.416 325.680,211.789 339.839,203.227 344.954 C 195.251 349.720,195.175 351.160,203.000 349.247 C 208.250 347.963,213.579 346.946,214.500 347.052 L 215.500 347.167 214.082 348.214 C 212.328 349.511,202.891 352.709,194.656 354.798 C 191.454 355.610,188.458 356.420,188.000 356.597 C 186.938 357.008,185.333 356.257,185.333 355.349 C 185.333 354.495,186.597 353.557,189.813 352.025 C 192.755 350.623,195.014 349.044,199.333 345.372 C 200.892 344.047,203.742 341.895,205.667 340.591 C 207.592 339.286,209.842 337.667,210.667 336.994 C 211.492 336.320,214.417 334.153,217.167 332.178 C 232.573 321.111,239.875 314.752,247.959 305.359 C 256.619 295.298,256.678 295.157,257.493 282.833 C 257.772 278.617,258.169 273.592,258.376 271.667 C 259.447 261.714,258.598 219.813,257.197 213.500 C 254.299 200.435,249.695 186.179,242.501 168.000 C 235.335 149.890,232.779 145.012,223.455 131.651 C 218.238 124.174,216.425 120.707,218.538 122.246 C 219.018 122.595,220.780 124.766,222.455 127.070 M210.171 133.007 C 210.499 133.538,209.703 135.602,208.102 138.366 C 204.747 144.161,202.722 151.563,199.633 169.333 C 199.036 172.772,198.873 175.376,198.704 184.234 C 198.495 195.205,198.387 196.015,197.191 195.555 C 195.247 194.809,194.596 190.963,194.562 180.029 L 194.536 171.500 196.117 163.833 C 199.425 147.789,201.391 142.143,205.888 135.764 C 207.839 132.996,209.503 131.925,210.171 133.007 M292.717 135.616 C 291.536 136.797,291.534 138.758,292.713 141.085 C 293.536 142.709,293.829 143.824,294.047 146.160 C 294.442 150.405,297.029 155.668,299.333 156.919 C 301.531 158.111,302.150 158.804,302.759 160.751 C 304.277 165.602,303.846 167.191,300.069 170.671 L 297.523 173.017 297.564 175.092 C 297.637 178.759,298.262 183.118,298.974 184.920 C 299.355 185.885,299.667 187.319,299.667 188.108 C 299.667 189.265,299.859 189.726,300.663 190.497 L 301.660 191.452 302.825 190.143 C 304.393 188.379,304.600 187.500,303.708 186.388 C 302.001 184.258,301.893 183.960,301.661 180.726 C 301.534 178.952,301.230 177.026,300.987 176.447 C 300.567 175.449,300.608 175.300,301.787 173.589 C 303.643 170.894,304.059 169.181,304.052 164.266 C 304.044 159.162,303.760 158.379,300.513 154.521 C 296.328 149.548,296.262 146.353,300.311 144.676 C 301.177 144.317,301.256 144.172,300.980 143.446 C 300.807 142.994,300.667 142.148,300.667 141.568 C 300.667 140.737,300.293 140.140,298.917 138.771 C 297.954 137.814,296.764 136.574,296.271 136.015 C 295.222 134.826,293.681 134.652,292.717 135.616 M135.453 145.087 C 137.967 147.457,138.143 148.083,136.526 148.914 C 135.285 149.551,120.467 168.276,121.524 167.870 C 121.838 167.750,123.929 167.280,126.172 166.826 C 142.063 163.608,151.713 169.335,151.739 182.000 C 151.763 194.044,143.475 199.547,123.816 200.542 L 119.481 200.762 118.238 197.964 C 117.554 196.426,116.996 195.054,116.997 194.917 C 116.999 194.779,119.212 194.664,121.917 194.660 C 138.783 194.638,145.808 190.867,145.812 181.833 C 145.816 173.917,142.380 171.165,132.500 171.169 C 121.838 171.174,113.948 175.035,107.605 183.352 L 105.840 185.667 103.526 183.354 L 101.213 181.040 105.856 176.154 C 114.920 166.616,120.429 160.034,124.946 153.345 C 126.242 151.427,127.271 149.827,127.234 149.789 C 127.196 149.752,123.566 150.222,119.166 150.835 C 114.766 151.448,110.659 151.998,110.039 152.058 L 108.912 152.167 107.961 149.000 C 107.437 147.258,107.007 145.796,107.004 145.750 C 107.002 145.704,108.462 145.666,110.250 145.665 C 116.291 145.661,130.902 144.142,132.211 143.382 C 133.117 142.856,133.048 142.820,135.453 145.087 M211.270 147.346 C 211.739 147.783,212.000 148.423,212.000 149.138 C 212.000 150.011,212.385 150.681,213.799 152.265 C 216.026 154.761,216.201 155.323,216.645 161.401 C 216.956 165.658,216.929 166.637,216.442 168.852 C 215.963 171.032,215.940 171.752,216.284 173.798 C 216.724 176.417,216.608 176.980,214.871 180.667 C 214.395 181.675,214.005 182.959,214.003 183.520 C 213.999 184.720,213.265 185.870,212.717 185.531 C 212.506 185.401,212.333 185.029,212.333 184.705 C 212.333 184.381,211.503 183.021,210.489 181.681 C 207.133 177.252,206.879 176.657,207.135 173.831 C 207.337 171.601,207.258 171.083,206.288 168.306 L 205.218 165.243 205.776 163.150 C 206.082 161.999,206.333 159.990,206.333 158.685 C 206.333 156.102,206.794 154.662,208.218 152.795 C 208.958 151.826,209.147 151.208,209.188 149.637 C 209.259 146.875,209.949 146.116,211.270 147.346 M223.311 157.864 C 225.030 162.419,225.187 169.455,223.812 180.333 C 221.909 195.384,212.871 204.564,204.254 200.198 C 200.142 198.114,199.692 195.100,203.732 196.692 C 212.941 200.322,219.607 191.871,220.712 175.167 C 220.893 172.417,221.195 168.442,221.381 166.333 C 221.831 161.242,221.894 157.499,221.560 155.667 L 221.287 154.167 221.979 155.167 C 222.359 155.717,222.958 156.931,223.311 157.864 M308.792 180.029 C 307.397 180.433,307.215 180.710,306.185 183.990 C 305.064 187.558,305.145 187.824,308.013 189.963 C 311.291 192.409,311.849 193.517,312.115 198.116 C 312.205 199.661,312.816 199.109,314.959 195.549 C 316.643 192.751,316.692 192.155,315.263 191.869 C 312.272 191.271,309.685 186.855,310.318 183.430 C 311.008 179.699,310.884 179.422,308.792 180.029 M276.787 205.423 L 277.473 206.346 276.601 207.217 C 274.956 208.862,272.973 207.288,273.961 205.120 C 274.463 204.016,275.852 204.165,276.787 205.423 M131.046 212.912 C 131.373 213.240,131.308 213.484,130.729 214.100 C 130.064 214.808,130.000 215.223,130.000 218.821 L 130.000 222.765 135.250 222.553 C 138.137 222.436,143.319 222.241,146.764 222.120 L 153.029 221.899 152.931 224.700 L 152.833 227.500 143.000 227.883 C 137.592 228.093,132.454 228.281,131.583 228.299 L 130.000 228.333 130.000 233.372 L 130.000 238.410 135.750 238.202 C 138.912 238.087,143.000 237.957,144.833 237.913 L 148.167 237.833 148.263 240.533 L 148.359 243.232 145.295 243.449 C 143.610 243.569,140.627 243.667,138.666 243.667 C 136.705 243.667,133.953 243.764,132.550 243.882 L 130.000 244.098 130.000 249.004 L 130.000 253.910 132.417 254.487 C 137.879 255.790,150.904 260.533,152.104 261.655 C 152.415 261.946,149.670 267.667,149.219 267.667 C 149.055 267.667,148.076 267.158,147.044 266.536 C 142.563 263.837,134.275 260.182,131.133 259.520 L 130.099 259.302 129.912 261.734 C 129.307 269.628,125.091 273.130,116.167 273.154 C 107.869 273.176,103.877 269.940,103.847 263.167 C 103.814 255.783,108.431 252.667,119.403 252.667 L 124.667 252.667 124.667 248.458 L 124.667 244.249 113.986 244.495 L 103.305 244.741 103.403 241.954 L 103.500 239.167 110.500 238.963 C 114.350 238.852,119.112 238.739,121.083 238.713 L 124.667 238.667 124.667 233.782 L 124.667 228.897 117.250 229.117 C 113.171 229.237,107.246 229.433,104.083 229.551 L 98.333 229.767 98.333 226.934 L 98.333 224.101 105.917 223.882 C 110.087 223.762,116.013 223.567,119.083 223.449 L 124.667 223.235 124.667 217.751 L 124.667 212.267 127.650 212.384 C 129.427 212.453,130.801 212.667,131.046 212.912 M279.018 214.010 C 280.081 214.579,280.732 216.159,280.297 217.114 C 279.487 218.892,277.429 218.908,276.044 217.147 C 274.377 215.028,276.581 212.705,279.018 214.010 M293.167 243.648 C 291.173 244.464,290.797 246.842,292.322 248.984 C 293.399 250.497,294.759 250.174,296.959 247.886 C 299.096 245.662,296.188 242.412,293.167 243.648 M113.556 258.145 C 106.372 260.076,107.913 267.887,115.556 268.280 C 120.850 268.553,123.768 265.894,124.231 260.374 L 124.421 258.103 122.627 257.888 C 119.783 257.546,115.311 257.673,113.556 258.145 M140.689 289.045 L 145.976 292.424 144.921 293.894 C 143.220 296.263,143.481 296.290,138.785 293.242 C 136.428 291.712,134.007 290.158,133.405 289.789 L 132.309 289.117 133.683 287.392 C 135.365 285.279,134.462 285.066,140.689 289.045 M115.501 288.126 C 116.104 288.567,116.106 288.622,115.545 289.477 C 114.663 290.824,114.874 328.532,115.779 331.255 C 119.022 341.013,134.257 339.430,146.015 328.112 L 148.863 325.370 150.936 328.023 L 153.010 330.677 150.755 332.900 C 136.174 347.278,113.634 347.605,109.466 333.500 C 108.933 331.695,108.864 329.366,108.753 309.583 L 108.631 287.667 111.752 287.667 C 113.878 287.667,115.073 287.813,115.501 288.126 M132.420 293.384 C 134.660 294.784,139.831 298.166,140.277 298.522 C 140.535 298.728,137.808 302.010,137.449 301.926 C 136.790 301.771,127.031 295.519,127.015 295.241 C 127.000 294.988,129.379 291.667,129.575 291.667 C 129.629 291.667,130.910 292.439,132.420 293.384 M258.470 314.359 C 259.803 315.942,259.650 317.344,257.989 318.766 C 256.656 319.906,256.000 321.315,256.000 323.036 C 256.000 327.204,248.278 335.620,241.900 338.404 C 233.020 342.281,233.573 342.087,232.476 341.697 C 230.773 341.092,230.319 341.259,228.486 343.167 C 226.417 345.319,226.353 345.332,224.785 343.895 C 223.693 342.895,223.584 342.636,223.625 341.145 C 223.650 340.240,223.349 338.482,222.956 337.237 L 222.241 334.974 223.007 334.159 C 224.150 332.943,224.790 332.882,226.635 333.817 C 229.548 335.294,231.305 334.682,231.352 332.176 C 231.395 329.874,232.043 328.871,233.666 328.595 C 235.792 328.233,236.577 327.510,238.162 324.455 C 241.423 318.168,245.290 315.508,248.767 317.158 C 250.732 318.090,253.301 317.177,254.874 314.988 C 256.299 313.004,257.198 312.846,258.470 314.359 M221.333 349.927 C 221.333 350.410,217.521 353.889,214.667 356.010 C 213.108 357.169,210.581 359.253,209.051 360.641 C 205.707 363.676,197.945 369.993,197.555 369.997 C 196.631 370.006,206.261 360.095,211.084 356.072 C 216.584 351.486,221.333 348.638,221.333 349.927 " stroke="none" fill="#ffffff" fill-rule="evenodd"></path><path id="path2" d="M207.315 56.855 C 206.741 57.547,205.436 58.196,204.000 58.502 C 203.358 58.639,202.499 58.877,202.091 59.031 L 201.349 59.311 202.247 61.072 C 202.987 62.522,203.147 63.285,203.156 65.390 C 203.165 67.634,203.228 67.894,203.667 67.512 C 206.238 65.272,210.322 64.556,211.464 66.145 C 211.850 66.683,212.692 67.718,213.333 68.445 C 214.491 69.756,214.500 69.790,214.513 72.966 C 214.531 77.449,215.560 80.045,218.718 83.581 C 221.537 86.736,221.736 87.366,220.826 90.250 C 220.654 90.794,220.723 91.000,221.078 91.000 C 221.862 91.000,224.247 92.887,225.299 94.339 L 226.268 95.676 226.812 94.088 C 227.706 91.478,227.817 89.086,227.157 86.662 C 226.356 83.724,226.190 82.128,226.653 81.842 C 226.890 81.695,226.492 81.261,225.601 80.696 C 221.748 78.251,216.223 69.874,217.427 68.304 C 218.562 66.827,220.048 66.962,222.167 68.738 C 222.717 69.199,223.831 69.913,224.642 70.325 C 229.681 72.882,233.632 79.331,231.780 81.975 C 231.304 82.655,231.293 82.816,231.704 83.132 C 231.966 83.335,233.205 84.800,234.456 86.390 C 238.682 91.757,242.664 90.997,244.817 84.412 C 245.395 82.643,246.964 81.000,248.076 81.000 C 248.359 81.000,248.832 80.630,249.128 80.178 C 249.789 79.171,249.798 79.000,249.192 79.000 C 248.366 79.000,246.676 77.316,244.980 74.804 C 243.104 72.023,241.984 71.094,239.169 69.981 C 237.945 69.496,236.439 68.517,235.277 67.448 C 233.946 66.224,233.003 65.641,232.108 65.488 C 229.410 65.027,228.377 64.627,226.963 63.494 L 225.500 62.323 222.434 62.539 L 219.368 62.755 219.147 61.872 C 218.588 59.647,216.834 59.236,214.000 60.667 C 211.118 62.121,209.875 61.547,210.057 58.846 C 210.188 56.905,208.370 55.585,207.315 56.855 M202.364 70.162 C 200.984 73.532,199.660 75.000,197.998 75.000 C 195.391 75.000,196.420 80.026,199.878 84.178 C 201.094 85.638,202.316 87.179,202.594 87.600 C 205.136 91.459,207.667 89.121,207.667 82.915 C 207.667 77.897,207.408 77.071,205.016 74.454 C 203.879 73.210,203.295 72.252,203.157 71.404 C 203.046 70.723,202.914 69.942,202.864 69.667 C 202.810 69.374,202.602 69.580,202.364 70.162 M315.667 76.353 C 314.665 76.980,308.562 79.000,307.668 79.000 C 306.133 79.000,305.815 79.785,306.959 80.748 C 307.497 81.201,308.241 82.165,308.611 82.892 C 312.395 90.307,328.305 90.727,327.596 83.392 C 327.252 79.830,326.149 78.716,322.582 78.324 C 320.892 78.139,319.851 77.800,318.623 77.036 C 316.859 75.940,316.469 75.850,315.667 76.353 M136.411 96.000 C 136.411 96.642,136.479 96.904,136.563 96.583 C 136.647 96.263,136.647 95.737,136.563 95.417 C 136.479 95.096,136.411 95.358,136.411 96.000 M275.157 105.436 C 274.904 106.782,275.381 108.693,276.674 111.515 C 277.750 113.866,278.526 116.447,278.822 118.667 C 279.348 122.614,279.831 124.667,280.678 126.555 C 281.668 128.763,282.333 131.388,282.333 133.087 C 282.333 133.666,283.078 135.721,283.989 137.654 C 284.948 139.688,286.203 143.201,286.972 146.000 C 287.702 148.658,288.532 151.490,288.816 152.292 C 291.371 159.500,285.497 160.479,282.681 153.314 C 281.854 151.212,281.703 150.997,281.686 151.909 C 281.672 152.681,281.427 153.142,280.816 153.542 C 277.983 155.398,278.561 158.574,282.839 164.667 C 284.100 166.462,284.848 167.997,285.494 170.114 C 285.988 171.735,286.753 173.835,287.193 174.781 C 289.328 179.367,287.176 181.410,282.033 179.678 C 280.963 179.317,279.356 178.859,278.461 178.659 C 277.543 178.454,276.415 177.904,275.873 177.398 C 275.138 176.709,274.993 176.656,275.256 177.167 C 276.648 179.878,277.057 182.175,277.021 187.089 L 276.984 192.010 277.883 192.352 C 278.377 192.540,279.018 192.590,279.307 192.464 C 281.469 191.518,287.560 191.165,288.976 191.904 C 291.064 192.992,291.512 193.990,291.410 197.315 C 291.290 201.167,291.471 201.318,294.631 200.015 C 298.611 198.374,299.900 197.036,301.211 193.187 L 301.747 191.615 300.707 190.541 C 299.878 189.687,299.667 189.184,299.667 188.071 C 299.667 187.303,299.355 185.885,298.974 184.920 C 298.262 183.118,297.637 178.759,297.564 175.092 L 297.523 173.017 300.069 170.671 C 303.846 167.191,304.277 165.602,302.759 160.751 C 302.150 158.804,301.531 158.111,299.333 156.919 C 297.029 155.668,294.442 150.405,294.047 146.160 C 293.829 143.824,293.536 142.709,292.713 141.085 C 290.547 136.808,293.394 132.752,296.271 136.015 C 296.764 136.574,297.954 137.814,298.917 138.771 C 300.293 140.140,300.667 140.737,300.667 141.568 C 300.667 143.368,301.205 144.333,302.210 144.333 C 302.702 144.333,303.595 144.708,304.196 145.167 C 307.014 147.316,308.810 144.482,306.333 141.795 C 305.074 140.429,305.000 140.232,304.998 138.257 C 304.996 135.913,304.635 135.044,302.713 132.750 C 301.983 131.879,300.902 130.146,300.310 128.899 C 299.025 126.196,297.537 124.859,295.200 124.309 C 292.824 123.750,291.206 122.869,290.212 121.593 C 289.744 120.992,288.352 119.825,287.119 119.000 C 284.442 117.209,283.767 116.352,283.378 114.247 C 283.155 113.041,282.714 112.263,281.542 111.011 C 280.694 110.104,280.000 109.202,280.000 109.007 C 280.000 108.553,277.494 105.826,276.288 104.968 L 275.367 104.312 275.157 105.436 M232.667 104.805 C 232.667 106.093,235.009 110.585,236.800 112.730 C 240.318 116.945,239.983 120.667,236.086 120.667 C 234.601 120.667,234.633 120.747,238.063 125.569 C 241.189 129.963,241.238 130.003,245.084 131.287 C 249.890 132.892,252.000 134.479,252.000 136.488 C 252.000 137.493,254.933 137.733,256.600 136.864 C 257.827 136.225,258.835 134.499,258.257 134.028 C 255.610 131.874,255.825 132.304,255.924 129.364 C 256.008 126.836,255.941 126.537,254.809 124.374 C 253.801 122.450,253.665 121.959,253.980 121.370 C 254.812 119.816,256.066 121.126,256.423 123.922 C 256.569 125.063,256.978 125.747,258.499 127.390 C 260.539 129.593,260.516 129.497,259.810 132.943 C 259.611 133.919,259.731 134.205,260.809 135.308 C 261.500 136.016,262.233 137.225,262.491 138.082 C 262.947 139.597,265.000 142.812,265.000 142.011 C 265.000 141.779,264.744 140.868,264.431 139.987 C 263.875 138.421,263.880 138.329,264.656 135.961 C 266.524 130.262,264.486 125.667,257.833 120.583 C 255.661 118.923,255.480 118.686,255.216 117.150 C 254.782 114.636,254.349 114.017,252.294 112.980 C 250.143 111.894,249.001 110.643,248.999 109.372 C 248.994 105.985,245.982 104.708,241.429 106.162 C 237.645 107.371,235.994 107.294,234.377 105.833 C 233.192 104.763,232.667 104.447,232.667 104.805 M209.660 147.175 C 209.428 147.454,209.215 148.562,209.188 149.637 C 209.147 151.208,208.958 151.826,208.218 152.795 C 206.794 154.662,206.333 156.102,206.333 158.685 C 206.333 159.990,206.082 161.999,205.776 163.150 L 205.218 165.243 206.288 168.306 C 207.258 171.083,207.337 171.601,207.135 173.831 C 206.879 176.657,207.133 177.252,210.489 181.681 C 211.503 183.021,212.333 184.381,212.333 184.705 C 212.333 185.029,212.506 185.401,212.717 185.531 C 213.265 185.870,213.999 184.720,214.003 183.520 C 214.005 182.959,214.395 181.675,214.871 180.667 C 216.608 176.980,216.724 176.417,216.284 173.798 C 215.940 171.752,215.963 171.032,216.442 168.852 C 217.555 163.788,216.408 154.821,214.401 152.898 L 213.480 152.016 213.795 154.294 C 214.054 156.170,214.012 156.818,213.555 157.960 C 212.858 159.701,212.855 160.766,213.543 162.566 C 214.762 165.757,211.612 168.330,209.308 166.026 C 208.254 164.972,208.060 163.767,208.750 162.561 C 209.017 162.094,209.177 160.340,209.195 157.667 C 209.235 151.807,209.623 150.583,211.442 150.583 C 212.167 150.583,212.201 150.492,211.992 149.116 C 211.694 147.153,210.502 146.161,209.660 147.175 M265.473 152.615 C 264.725 153.107,263.391 154.146,262.510 154.922 C 260.528 156.666,258.778 156.817,255.801 155.500 C 254.765 155.042,253.849 154.667,253.765 154.667 C 253.391 154.667,254.191 157.049,255.333 159.333 C 256.020 160.708,256.986 162.958,257.478 164.333 C 258.628 167.542,259.583 169.156,261.705 171.478 C 262.648 172.510,263.604 173.892,263.830 174.549 C 264.285 175.874,264.646 173.502,264.779 168.300 C 264.886 164.112,266.584 163.778,269.651 167.342 C 270.760 168.630,271.667 169.540,271.667 169.364 C 271.667 167.982,270.403 163.700,269.031 160.433 C 267.169 155.999,266.514 153.724,266.748 152.502 C 266.836 152.042,266.891 151.678,266.870 151.693 C 266.850 151.707,266.221 152.122,265.473 152.615 M314.516 164.847 C 315.423 167.541,315.677 167.849,315.292 165.788 C 315.043 164.458,314.235 162.667,313.884 162.667 C 313.828 162.667,314.113 163.648,314.516 164.847 M211.599 169.417 C 212.255 170.792,211.533 172.131,210.059 172.273 C 208.704 172.403,208.000 171.866,208.000 170.700 C 208.000 168.378,210.653 167.433,211.599 169.417 M315.388 173.706 C 314.815 176.246,313.708 178.029,312.168 178.892 C 308.204 181.116,310.544 190.925,315.263 191.869 C 315.978 192.012,316.333 192.277,316.333 192.666 C 316.333 193.391,313.479 198.186,312.711 198.751 C 311.427 199.696,311.353 202.415,312.578 203.687 C 313.184 204.317,314.447 206.258,315.385 208.000 L 317.089 211.167 316.540 212.724 C 315.671 215.190,316.781 216.929,318.504 215.800 C 319.586 215.091,319.782 214.296,319.285 212.638 C 318.889 211.316,318.909 211.216,319.684 210.640 C 321.674 209.163,321.667 209.180,321.667 205.990 C 321.667 203.621,321.560 202.938,321.167 202.787 C 320.770 202.635,320.666 201.930,320.665 199.381 C 320.664 195.698,320.214 194.599,318.201 193.355 C 316.880 192.538,316.657 191.820,317.629 191.512 C 318.928 191.100,320.942 187.161,320.387 186.120 C 320.035 185.459,319.166 182.040,318.790 179.833 C 318.664 179.100,318.361 178.017,318.114 177.427 C 317.868 176.837,317.667 175.827,317.667 175.183 C 317.667 174.369,317.380 173.690,316.729 172.962 L 315.792 171.913 315.388 173.706 M151.744 182.000 C 151.744 182.642,151.813 182.904,151.896 182.583 C 151.980 182.262,151.980 181.737,151.896 181.417 C 151.813 181.096,151.744 181.358,151.744 182.000 M117.909 194.907 C 118.501 194.981,119.551 194.982,120.243 194.910 C 120.934 194.838,120.450 194.778,119.167 194.776 C 117.883 194.775,117.317 194.834,117.909 194.907 M273.961 205.120 C 272.973 207.288,274.956 208.862,276.601 207.217 L 277.473 206.346 276.787 205.423 C 275.852 204.165,274.463 204.016,273.961 205.120 M276.000 214.333 C 275.143 215.190,275.156 216.018,276.044 217.147 C 277.429 218.908,279.487 218.892,280.297 217.114 C 281.332 214.843,277.785 212.548,276.000 214.333 M283.391 216.438 C 282.964 216.893,282.667 217.640,282.667 218.258 C 282.667 219.502,282.050 220.141,279.350 221.697 C 276.061 223.593,275.490 225.229,277.276 227.640 L 278.120 228.780 279.177 226.456 C 280.192 224.224,280.319 224.091,282.380 223.107 C 284.649 222.023,286.227 220.502,287.334 218.331 L 288.006 217.014 287.086 216.819 C 286.581 216.711,285.769 216.408,285.282 216.145 C 284.163 215.540,284.247 215.527,283.391 216.438 M299.912 231.506 C 297.711 233.507,295.656 234.143,292.331 233.853 C 287.793 233.457,286.459 234.627,286.723 238.770 C 286.814 240.202,287.068 241.150,287.512 241.719 C 287.872 242.180,288.879 243.498,289.750 244.649 C 291.078 246.402,291.333 246.609,291.333 245.928 C 291.333 242.841,297.103 242.806,297.877 245.888 C 298.412 248.018,293.807 250.840,292.491 249.189 L 291.764 248.278 292.029 249.889 C 292.174 250.775,292.303 252.448,292.313 253.606 L 292.333 255.712 293.250 255.066 C 294.555 254.147,295.539 253.908,296.313 254.323 C 298.523 255.505,301.153 252.465,300.837 249.093 L 300.608 246.649 302.204 244.313 C 304.254 241.313,304.279 240.446,302.400 237.647 C 300.781 235.237,300.782 235.243,301.680 233.214 C 302.263 231.897,302.298 231.561,301.930 230.870 L 301.500 230.064 299.912 231.506 M282.212 255.021 C 281.742 257.372,281.955 258.608,283.026 259.745 L 284.051 260.833 283.855 259.333 C 283.332 255.340,282.556 253.303,282.212 255.021 M291.310 264.056 C 291.297 264.117,291.215 264.749,291.129 265.460 C 290.953 266.910,290.304 268.332,289.522 268.982 C 288.853 269.537,288.857 270.910,289.533 272.527 C 290.412 274.631,289.126 278.264,287.297 278.845 C 286.179 279.200,285.667 280.009,285.667 281.420 C 285.667 282.969,284.795 284.473,283.266 285.559 L 282.283 286.257 283.860 286.079 L 285.437 285.902 285.228 287.186 C 284.909 289.153,286.683 290.517,287.933 289.267 C 288.764 288.436,287.629 286.333,286.350 286.333 C 286.017 286.333,285.961 285.948,286.123 284.750 C 286.339 283.154,286.981 282.333,288.012 282.333 C 288.812 282.333,289.628 281.294,289.862 279.978 C 289.973 279.348,290.455 277.805,290.932 276.549 C 291.787 274.296,291.791 274.243,291.233 272.671 C 290.305 270.058,290.463 269.066,292.067 267.432 L 293.467 266.005 292.797 265.107 C 292.210 264.320,291.379 263.733,291.310 264.056 M280.394 267.026 C 280.016 267.633,280.073 267.866,280.854 268.890 C 281.419 269.631,281.824 270.677,281.957 271.741 L 282.167 273.422 283.583 270.943 C 285.379 267.802,285.396 267.224,283.711 266.719 C 281.826 266.155,280.884 266.242,280.394 267.026 M281.548 276.426 C 281.435 276.879,280.675 277.755,279.860 278.374 C 277.938 279.835,277.667 280.491,277.667 283.680 L 277.667 286.329 276.250 287.309 C 273.324 289.332,272.939 290.358,274.545 291.846 C 277.318 294.416,280.667 292.876,280.667 289.031 C 280.667 287.698,280.814 287.261,281.417 286.811 C 281.923 286.433,281.977 286.315,281.583 286.449 C 279.656 287.100,279.476 284.909,281.167 281.380 C 282.311 278.993,282.638 276.996,282.039 276.052 C 281.827 275.718,281.702 275.814,281.548 276.426 M254.890 314.966 C 254.045 316.141,253.360 316.708,252.442 316.991 C 251.740 317.207,250.968 317.447,250.725 317.524 C 250.393 317.630,250.455 317.882,250.974 318.543 C 254.156 322.588,251.061 329.180,243.667 334.106 C 242.658 334.778,241.158 335.850,240.333 336.489 C 236.237 339.661,233.389 336.798,235.492 331.622 C 235.946 330.505,236.411 329.092,236.526 328.481 L 236.734 327.371 235.463 328.019 C 234.764 328.375,233.779 328.667,233.275 328.667 C 232.172 328.667,231.735 329.365,231.456 331.570 C 231.046 334.811,229.770 335.406,226.635 333.817 C 224.790 332.882,224.150 332.943,223.007 334.159 L 222.241 334.974 222.956 337.237 C 223.349 338.482,223.650 340.240,223.625 341.145 C 223.584 342.636,223.693 342.895,224.785 343.895 C 226.353 345.332,226.417 345.319,228.486 343.167 C 230.319 341.259,230.773 341.092,232.476 341.697 C 233.573 342.087,233.020 342.281,241.900 338.404 C 248.278 335.620,256.000 327.204,256.000 323.036 C 256.000 321.315,256.656 319.906,257.989 318.766 C 259.650 317.344,259.803 315.942,258.470 314.359 C 257.202 312.851,256.299 313.005,254.890 314.966 M150.812 332.750 L 149.833 333.833 150.917 332.854 C 151.926 331.942,152.153 331.667,151.896 331.667 C 151.838 331.667,151.351 332.154,150.812 332.750 " stroke="none" fill="#f62408" fill-rule="evenodd"></path></g></svg>